<svg width="20" height="19" viewBox="0 0 20 19" fill="none" xmlns="http://www.w3.org/2000/svg">
<path d="M19 11.1045C19.5523 11.1045 20 11.5522 20 12.1045C20 12.6568 19.5523 13.1045 19 13.1045H1C0.447715 13.1045 0 12.6568 0 12.1045C0 11.5522 0.447715 11.1045 1 11.1045H19Z" fill="white"/>
<path d="M19 16.6602C19.5523 16.6602 20 17.1079 20 17.6602C20 18.2124 19.5523 18.6602 19 18.6602H1C0.447715 18.6602 0 18.2124 0 17.6602C0 17.1079 0.447715 16.6602 1 16.6602H19Z" fill="white"/>
<path d="M17.8887 4.44531C17.8887 3.7703 17.341 3.22266 16.666 3.22266H8.88867C8.33639 3.22266 7.88867 2.77494 7.88867 2.22266C7.88867 1.67037 8.33639 1.22266 8.88867 1.22266H16.666C18.4456 1.22266 19.8887 2.66573 19.8887 4.44531C19.8884 6.2247 18.4455 7.66699 16.666 7.66699H8.88867C8.33639 7.66699 7.88867 7.21928 7.88867 6.66699C7.88873 6.11476 8.33642 5.66699 8.88867 5.66699H16.666C17.3409 5.66699 17.8884 5.12013 17.8887 4.44531Z" fill="white"/>
<path d="M6 3.4641C6.66667 3.849 6.66667 4.81125 6 5.19615L1.5 7.79423C0.833334 8.17913 4.20613e-08 7.698 7.57103e-08 6.9282L3.02841e-07 1.73205C3.3649e-07 0.962251 0.833334 0.481125 1.5 0.866025L6 3.4641Z" fill="white"/>
</svg>
