<svg width="30" height="44" viewBox="0 0 30 44" fill="none" xmlns="http://www.w3.org/2000/svg">
<path d="M2.25684 25.9492C1.01069 25.9492 1.7043e-06 24.9385 1.81572e-06 23.6924C0.000261092 22.4464 1.01085 21.4365 2.25684 21.4365L27.7432 21.4365C28.9892 21.4365 29.9997 22.4465 30 23.6924C30 24.9385 28.9893 25.9492 27.7432 25.9492L21.3076 25.9492C19.0985 25.9492 17.3076 27.7401 17.3076 29.9492L17.3076 41.6924C17.3076 42.9668 16.2745 44 15 44C13.7255 44 12.6924 42.9668 12.6924 41.6924L12.6924 29.9492C12.6924 27.7401 10.9015 25.9492 8.69238 25.9492L2.25684 25.9492Z" fill="white"/>
<path d="M26.8457 0C27.9501 0.000150276 28.8457 0.895523 28.8457 2V19.1787H1.15332V2C1.15332 0.895482 2.04882 8.33235e-05 3.15332 0H20.8525V7.48633C20.8525 8.09249 21.344 8.58398 21.9502 8.58398C22.5563 8.58389 23.0479 8.09243 23.0479 7.48633V0H26.8457Z" fill="white"/>
</svg>
