<svg width="40" height="40" viewBox="0 0 40 40" fill="none" xmlns="http://www.w3.org/2000/svg">
<circle cx="20" cy="20" r="20" fill="#0080FF"/>
<path d="M5 20C5 19.4477 5.44772 19 6 19C6.55228 19 7 19.4477 7 20C7 27.1797 12.8203 33 20 33C20.5523 33 21 33.4477 21 34C21 34.5523 20.5523 35 20 35C11.7157 35 5 28.2843 5 20Z" fill="white"/>
<path d="M33 20C33 12.8203 27.1797 7 20 7C19.4477 7 19 6.55228 19 6C19 5.44772 19.4477 5 20 5C28.2843 5 35 11.7157 35 20C35 20.5523 34.5523 21 34 21C33.4477 21 33 20.5523 33 20Z" fill="white"/>
<circle cx="20" cy="20" r="6" fill="white"/>
</svg>
