<svg width="40" height="40" viewBox="0 0 40 40" fill="none" xmlns="http://www.w3.org/2000/svg">
<path d="M20 0C31.0457 0 40 8.95431 40 20C40 31.0457 31.0457 40 20 40C8.95431 40 0 31.0457 0 20C0 8.95431 8.95431 0 20 0ZM6 19C5.44772 19 5 19.4477 5 20C5 28.2843 11.7157 35 20 35C20.5523 35 21 34.5523 21 34C21 33.4477 20.5523 33 20 33C12.8203 33 7 27.1797 7 20C7 19.4477 6.55228 19 6 19ZM20 14C16.6863 14 14 16.6863 14 20C14 23.3137 16.6863 26 20 26C23.3137 26 26 23.3137 26 20C26 16.6863 23.3137 14 20 14ZM20 5C19.4477 5 19 5.44772 19 6C19 6.55228 19.4477 7 20 7C27.1797 7 33 12.8203 33 20C33 20.5523 33.4477 21 34 21C34.5523 21 35 20.5523 35 20C35 11.7157 28.2843 5 20 5Z" fill="#0080FF"/>
</svg>
