<svg width="20" height="20" viewBox="0 0 20 20" fill="none" xmlns="http://www.w3.org/2000/svg">
<path d="M0 4C0 1.79086 1.79086 0 4 0H7.75V2H4C2.89543 2 2 2.89543 2 4V7.75H0V4Z" fill="white"/>
<path d="M16 -1.74846e-07C18.2091 -7.8281e-08 20 1.79086 20 4L20 7.75L18 7.75L18 4C18 2.89543 17.1046 2 16 2L12.25 2L12.25 -3.38763e-07L16 -1.74846e-07Z" fill="white"/>
<path d="M20 16C20 18.2091 18.2091 20 16 20L12.25 20L12.25 18L16 18C17.1046 18 18 17.1046 18 16L18 12.25L20 12.25L20 16Z" fill="white"/>
<path d="M4 20C1.79086 20 -7.8281e-08 18.2091 -1.74846e-07 16L-3.38763e-07 12.25L2 12.25L2 16C2 17.1046 2.89543 18 4 18L7.75 18L7.75 20L4 20Z" fill="white"/>
</svg>
