<svg width="51" height="42" viewBox="0 0 51 42" fill="none" xmlns="http://www.w3.org/2000/svg">
<path d="M0 18C0 15.7909 1.79086 14 4 14H4.19997V27.9999H4C1.79086 27.9999 0 26.2091 0 23.9999V18Z" fill="white"/>
<path d="M50.4004 18C50.4004 15.7909 48.6095 14 46.4004 14H46.2004V27.9999H46.4004C48.6095 27.9999 50.4004 26.2091 50.4004 23.9999V18Z" fill="white"/>
<rect x="5.2002" y="1" width="39.9997" height="39.9998" rx="9" stroke="white" stroke-width="2"/>
<path d="M25.3359 5.87109C33.766 5.87109 40.6004 12.7048 40.6006 21.1348C40.6006 29.5648 33.766 36.3994 25.3359 36.3994C16.906 36.3992 10.0723 29.5647 10.0723 21.1348C10.0724 12.7049 16.9061 5.87131 25.3359 5.87109ZM25.3369 16.5859C22.8781 16.5859 20.8848 18.5793 20.8848 21.0381C20.8848 23.4968 22.8781 25.4902 25.3369 25.4902C27.7957 25.4902 29.789 23.4968 29.7891 21.0381C29.7891 18.5793 27.7957 16.5859 25.3369 16.5859ZM15.1602 17.8721C13.4041 17.8722 11.9806 19.2957 11.9805 21.0518C11.9805 22.8079 13.404 24.2323 15.1602 24.2324C16.9164 24.2324 18.3408 22.808 18.3408 21.0518C18.3407 19.2956 16.9164 17.8721 15.1602 17.8721ZM35.5127 17.8721C33.7565 17.8721 32.3331 19.2956 32.333 21.0518C32.333 22.808 33.7564 24.2324 35.5127 24.2324C37.269 24.2324 38.6924 22.808 38.6924 21.0518C38.6923 19.2956 37.2689 17.8721 35.5127 17.8721Z" fill="white"/>
</svg>
