<svg width="30" height="36" viewBox="0 0 30 36" fill="none" xmlns="http://www.w3.org/2000/svg">
<path d="M23 35.2383H28C29.1046 35.2383 30 34.3428 30 33.2383V14.3769C30 13.8295 29.7756 13.306 29.3791 12.9285L16.3791 0.551297C15.6067 -0.184054 14.3933 -0.184052 13.6209 0.551299L0.620911 12.9285C0.224417 13.306 0 13.8295 0 14.3769V33.2383C0 34.3429 0.895431 35.2383 2 35.2383H7C8.10457 35.2383 9 34.3429 9 33.2383V24.2069C9 23.1023 9.89543 22.2069 11 22.2069H19C20.1046 22.2069 21 23.1023 21 24.2069V33.2383C21 34.3429 21.8954 35.2383 23 35.2383Z" fill="white"/>
</svg>
