<svg width="15" height="13" viewBox="0 0 15 13" fill="none" xmlns="http://www.w3.org/2000/svg">
<path d="M7.81215 1.5467C8.53282 0.575451 9.69167 0 10.9226 0C13.0414 0 14.7595 1.67302 14.7595 3.73622C14.7595 5.66187 13.5228 7.35454 12.4793 8.58684C11.208 10.0914 9.67438 11.3967 8.62219 12.1771C8.26761 12.441 7.82944 12.5729 7.37974 12.5729C6.93004 12.5729 6.49186 12.441 6.13729 12.1771C5.0851 11.3967 3.5515 10.0914 2.28022 8.58965C1.23668 7.35734 0 5.66187 0 3.73622C0 1.67302 1.7181 0 3.83689 0C5.06781 0 6.22665 0.575451 6.94733 1.5467L7.37974 2.12776L7.81215 1.5467Z" fill="white"/>
</svg>
