<svg width="16" height="14" viewBox="0 0 16 14" fill="none" xmlns="http://www.w3.org/2000/svg">
<path d="M14.7598 4.23633C14.7598 2.4618 13.278 1.00014 11.4229 1C10.3465 1 9.33806 1.50354 8.71387 2.34473L8.28125 2.92578L7.87988 3.46484L7.0459 2.34473C6.42172 1.50353 5.41322 1.00001 4.33691 1C2.48165 1 1 2.46172 1 4.23633C1.00005 5.96284 2.11783 7.53343 3.16211 8.7666C4.24702 10.0482 5.53329 11.1878 6.52832 11.9648L6.93555 12.2754C7.19524 12.4686 7.52651 12.5732 7.87988 12.5732C8.233 12.5732 8.56365 12.4694 8.82324 12.2764L8.82422 12.2754C9.8549 11.511 11.3579 10.231 12.5977 8.76367C13.6422 7.53023 14.7597 5.96267 14.7598 4.23633ZM15.7598 4.23633C15.7597 6.36078 14.4038 8.17807 13.3613 9.40918C12.0586 10.951 10.4936 12.2828 9.41992 13.0791C8.97069 13.4131 8.42548 13.5732 7.87988 13.5732C7.33431 13.5732 6.78908 13.413 6.33984 13.0791L5.91504 12.7559C4.87853 11.9467 3.5382 10.7595 2.39844 9.41309C1.35567 8.1817 4.74672e-05 6.36104 0 4.23633C0 1.88454 1.95459 0 4.33691 0C5.72199 8.16794e-06 7.03044 0.647396 7.84766 1.74805L7.87988 1.78906L7.91113 1.74805C8.72834 0.647188 10.0376 0 11.4229 0C13.8051 0.000137791 15.7598 1.88462 15.7598 4.23633Z" fill="white"/>
</svg>
