<svg width="37" height="37" viewBox="0 0 37 37" fill="none" xmlns="http://www.w3.org/2000/svg">
<path d="M18.5 0C28.7174 0 37 8.28265 37 18.5C37 19.6485 36.8948 20.7727 36.6943 21.8633C36.3206 23.8958 34.4016 25.1592 32.335 25.1592H23.2539C20.4925 25.1592 18.2539 27.3978 18.2539 30.1592V31.9307C18.2537 34.7174 15.9319 37.0331 13.2588 36.2451C5.59413 33.9856 6.25614e-05 26.8968 0 18.5C3.52058e-05 8.28272 8.28273 0.000111335 18.5 0ZM5.42676 14.3057C3.79199 14.3057 2.46584 15.6309 2.46582 17.2656C2.46582 18.9004 3.79198 20.2256 5.42676 20.2256C7.06134 20.2254 8.38672 18.9003 8.38672 17.2656C8.3867 15.631 7.06133 14.3059 5.42676 14.3057ZM28.6133 7.39746C26.9787 7.39753 25.6535 8.72286 25.6533 10.3574C25.6533 11.9922 26.9786 13.3173 28.6133 13.3174C30.2481 13.3174 31.5732 11.9922 31.5732 10.3574C31.573 8.72282 30.2479 7.39746 28.6133 7.39746ZM10.3594 6.41211C8.72481 6.41236 7.39941 7.73745 7.39941 9.37207C7.39944 11.0067 8.72483 12.3318 10.3594 12.332C11.9941 12.332 13.3203 11.0068 13.3203 9.37207C13.3203 7.73729 11.9942 6.41211 10.3594 6.41211ZM19.7334 2.97266C18.0987 2.9727 16.7735 4.29789 16.7734 5.93262C16.7734 7.56737 18.0987 8.89254 19.7334 8.89258C21.3682 8.89258 22.6934 7.5674 22.6934 5.93262C22.6933 4.29787 21.3682 2.97266 19.7334 2.97266Z" fill="white"/>
</svg>
