<svg width="24" height="22" viewBox="0 0 24 22" fill="none" xmlns="http://www.w3.org/2000/svg">
<path d="M21.167 3.30064C21.8337 3.68554 21.8337 4.64779 21.167 5.03269L17.917 6.90908C17.2503 7.29398 16.417 6.81286 16.417 6.04306V2.29028C16.417 1.52048 17.2503 1.03935 17.917 1.42425L21.167 3.30064Z" fill="white"/>
<path d="M2 12.501V9.16797C2 6.95883 3.79086 5.16797 6 5.16797H18.334C18.8863 5.16797 19.334 4.72025 19.334 4.16797C19.334 3.61568 18.8863 3.16797 18.334 3.16797H6C2.68629 3.16797 0 5.85426 0 9.16797V12.501C0 13.0533 0.447716 13.501 1 13.501C1.55228 13.501 2 13.0533 2 12.501Z" fill="white"/>
<path d="M2.5 18.3673C1.83333 17.9824 1.83333 17.0202 2.5 16.6353L5.75 14.7589C6.41667 14.374 7.25 14.8551 7.25 15.6249V19.3777C7.25 20.1475 6.41667 20.6286 5.75 20.2437L2.5 18.3673Z" fill="white"/>
<path d="M21.667 9.16699V12.5C21.667 14.7091 19.8761 16.5 17.667 16.5H4.83398C4.2817 16.5 3.83398 16.9477 3.83398 17.5C3.83398 18.0523 4.2817 18.5 4.83398 18.5H17.667C20.9807 18.5 23.667 15.8137 23.667 12.5V9.16699C23.667 8.61471 23.2193 8.16699 22.667 8.16699C22.1147 8.16699 21.667 8.61471 21.667 9.16699Z" fill="white"/>
</svg>
