<svg width="32" height="32" viewBox="0 0 32 32" fill="none" xmlns="http://www.w3.org/2000/svg">
<path d="M19.8933 5.1414C15.8197 1.06782 9.21504 1.06782 5.14143 5.1414C1.06782 9.21499 1.06782 15.8196 5.14143 19.8932C9.21504 23.9668 15.8197 23.9668 19.8933 19.8932C23.9669 15.8196 23.9669 9.21499 19.8933 5.1414ZM21.3685 3.66623C26.2568 8.55453 26.2568 16.48 21.3685 21.3683C16.4801 26.2566 8.55458 26.2566 3.66625 21.3683C-1.22208 16.48 -1.22208 8.55453 3.66625 3.66623C8.55458 -1.22208 16.4801 -1.22208 21.3685 3.66623Z" fill="white"/>
<path d="M19.893 21.3683C19.4856 20.9609 19.4859 20.3005 19.8933 19.8932C20.3006 19.4858 20.9608 19.4857 21.3682 19.8931L31.6945 30.2193C32.1018 30.6267 32.1018 31.2871 31.6945 31.6945C31.2871 32.1018 30.6267 32.1018 30.2193 31.6945L19.893 21.3683Z" fill="white"/>
</svg>
