<svg width="25" height="22" viewBox="0 0 25 22" fill="none" xmlns="http://www.w3.org/2000/svg">
<path d="M22.5479 3.43722C23.2145 3.82212 23.2145 4.78437 22.5479 5.16927L19.093 7.16394C18.4263 7.54884 17.593 7.06771 17.593 6.29791L17.593 2.30858C17.593 1.53878 18.4263 1.05765 19.093 1.44255L22.5479 3.43722Z" fill="white"/>
<path d="M22.5479 16.0935C23.2145 16.4784 23.2145 17.4406 22.5479 17.8255L19.093 19.8202C18.4263 20.2051 17.593 19.724 17.593 18.9542L17.593 14.9648C17.593 14.195 18.4263 13.7139 19.093 14.0988L22.5479 16.0935Z" fill="white"/>
<path d="M6.58143 12.9102L3.82946 15.6621C3.07931 16.4123 2.0619 16.8337 1.00103 16.8337H0" stroke="white" stroke-width="2"/>
<path d="M11.25 8.24062L14.0163 5.47431C14.7665 4.72416 15.7839 4.30273 16.8447 4.30273H17.5926" stroke="white" stroke-width="2"/>
<path d="M0 4.30395H1.00103C2.0619 4.30395 3.07931 4.72538 3.82946 5.47552L14.0163 15.6624C14.7665 16.4126 15.7839 16.834 16.8448 16.834H17.5927" stroke="white" stroke-width="2"/>
</svg>
