<svg width="19" height="19" viewBox="0 0 19 19" fill="none" xmlns="http://www.w3.org/2000/svg">
<path d="M16.5537 12.6641C16.9616 12.2917 17.5944 12.3206 17.9668 12.7285C18.3391 13.1364 18.3102 13.7693 17.9023 14.1416L13.335 18.3115C12.0512 19.4834 9.98633 18.5722 9.98633 16.834V1C9.98633 0.447715 10.434 0 10.9863 0C11.5386 0 11.9863 0.447715 11.9863 1V16.834L16.5537 12.6641Z" fill="white"/>
<path d="M1.67481 6.18945C1.26693 6.56182 0.634091 6.53287 0.26172 6.125C-0.110534 5.71712 -0.081657 5.08425 0.326173 4.71191L4.89356 0.541992C6.17732 -0.629927 8.24219 0.28127 8.24219 2.01953L8.24219 17.8535C8.24219 18.4058 7.79447 18.8535 7.24219 18.8535C6.6899 18.8535 6.24219 18.4058 6.24219 17.8535L6.24219 2.01953L1.67481 6.18945Z" fill="white"/>
</svg>
