<svg width="37" height="23" viewBox="0 0 37 23" fill="none" xmlns="http://www.w3.org/2000/svg">
<path d="M18.1816 0C23.6724 8.01184e-05 28.1786 4.20446 28.6621 9.56934H29.6641C33.3634 9.56934 36.3632 12.5682 36.3633 16.2676C36.3633 19.967 33.3635 22.9658 29.6641 22.9658H19.6982V17.082H23.2949C24.3775 17.082 24.9587 15.9971 24.25 15.2988L19.1367 10.2607C18.6328 9.76459 17.7304 9.76456 17.2266 10.2607L12.1133 15.2988C11.4047 15.9971 11.9858 17.082 13.0684 17.082H16.665V22.9658H6.69824C2.99889 22.9657 0 19.967 0 16.2676C8.1285e-05 12.5683 2.99894 9.56943 6.69824 9.56934H7.70117C8.18468 4.20443 12.6908 2.4001e-07 18.1816 0Z" fill="white"/>
</svg>
