<svg width="26" height="21" viewBox="0 0 26 21" fill="none" xmlns="http://www.w3.org/2000/svg">
<path d="M4.8203 15.0501L9.88677 19.3518C11.186 20.4549 13.1812 19.5315 13.1812 17.8272L13.1812 3.32204C13.1812 1.61774 11.186 0.694377 9.88677 1.79744L5.05991 5.89566C4.69843 6.20258 4.23966 6.37107 3.76546 6.37107L2 6.37107C0.895431 6.37107 -5.49214e-07 7.2665 -5.00932e-07 8.37107L-3.17183e-07 12.5747C-2.68901e-07 13.6793 0.89543 14.5747 2 14.5747L3.52585 14.5747C4.00005 14.5747 4.45882 14.7432 4.8203 15.0501Z" fill="white"/>
<path d="M18.2197 2.55951C18.5126 2.26662 18.9873 2.26662 19.2802 2.55951C23.7486 7.02785 23.7486 14.2728 19.2802 18.7412C18.9874 19.0337 18.5125 19.0337 18.2197 18.7412C17.9268 18.4483 17.9268 17.9725 18.2197 17.6796C22.102 13.7971 22.1021 7.50253 18.2197 3.62006C17.9268 3.32717 17.9268 2.85241 18.2197 2.55951Z" fill="white"/>
<path d="M15.6513 5.206C15.9442 4.9131 16.419 4.9131 16.7119 5.206C19.7187 8.21288 19.7187 13.0877 16.7119 16.0947C16.419 16.3876 15.9442 16.3876 15.6513 16.0947C15.3586 15.8018 15.3585 15.327 15.6513 15.0341C18.0723 12.613 18.0724 8.68764 15.6513 6.26654C15.3584 5.97365 15.3584 5.49889 15.6513 5.206Z" fill="white"/>
<path d="M21.0768 0.228825C21.341 -0.07322 21.7727 -0.0766083 22.041 0.220822C27.1608 5.89655 27.1608 15.1034 22.041 20.7792C21.7727 21.0766 21.341 21.0732 21.0768 20.7712C20.8129 20.4688 20.8159 19.9823 21.0839 19.6847C25.6611 14.611 25.6611 6.38905 21.0839 1.31527C20.8159 1.01765 20.8129 0.531167 21.0768 0.228825Z" fill="white" fill-opacity="0.5"/>
</svg>
